<svg width="60" height="60" viewBox="0 0 60 60" fill="none" xmlns="http://www.w3.org/2000/svg">
<path d="M49.1719 16.2949C49.0495 15.9188 48.8113 15.591 48.4914 15.3584C48.1715 15.1258 47.7862 15.0004 47.3906 15H43.125V8.4375C43.125 7.40039 42.2871 6.5625 41.25 6.5625H18.75C17.7129 6.5625 16.875 7.40039 16.875 8.4375V15H12.6094C12.2136 14.9995 11.8279 15.1246 11.5078 15.3573C11.1877 15.59 10.9497 15.9183 10.8281 16.2949L6.5625 29.4141V51.5625C6.5625 52.5996 7.40039 53.4375 8.4375 53.4375H51.5625C52.5996 53.4375 53.4375 52.5996 53.4375 51.5625V29.4141L49.1719 16.2949ZM21.0938 10.7812H38.9062V15H21.0938V10.7812ZM49.2188 49.2188H10.7812V30.082L14.3145 19.2188H45.6855L49.2188 30.082V49.2188ZM38.2031 33.5156H31.875V27.1875C31.875 26.9297 31.6641 26.7188 31.4062 26.7188H28.5938C28.3359 26.7188 28.125 26.9297 28.125 27.1875V33.5156H21.7969C21.5391 33.5156 21.3281 33.7266 21.3281 33.9844V36.7969C21.3281 37.0547 21.5391 37.2656 21.7969 37.2656H28.125V43.5938C28.125 43.8516 28.3359 44.0625 28.5938 44.0625H31.4062C31.6641 44.0625 31.875 43.8516 31.875 43.5938V37.2656H38.2031C38.4609 37.2656 38.6719 37.0547 38.6719 36.7969V33.9844C38.6719 33.7266 38.4609 33.5156 38.2031 33.5156Z" fill="#CCCCCC"/>
</svg>
