<svg width="16" height="16" viewBox="0 0 16 16" fill="none" xmlns="http://www.w3.org/2000/svg">
<path d="M3.5 8.0001L9.8 1.7001C10.2 1.3001 10.8 1.0001 11.5 1.0001C12.2 1.0001 12.8 1.3001 13.3 1.7001C14.3 2.7001 14.3 4.3001 13.3 5.2001L10.5 8.0001H11.9L13.9 6.0001C15.3 4.6001 15.3 2.4001 13.9 1.1001C13.2 0.400098 12.3 0.100098 11.4 0.100098C10.5 0.100098 9.7 0.300098 9 1.0001L2.7 7.4001C2.4 7.6001 2.2 7.9001 2 8.3001C2.5 8.1001 3 8.0001 3.5 8.0001Z" fill="black"/>
<path d="M7.2999 5.6001L4.8999 8.0001H9.5999L7.2999 5.6001Z" fill="black"/>
<path d="M12.5 9H3.5C1.6 9 0 10.6 0 12.5C0 14.4 1.6 16 3.5 16H12.5C14.4 16 16 14.4 16 12.5C16 10.6 14.4 9 12.5 9ZM12.5 15H8V11H3.5C2.4 11 1.5 11.6 1 12.2C1.2 11 2.2 10 3.5 10H12.5C13.9 10 15 11.1 15 12.5C15 13.9 13.9 15 12.5 15Z" fill="black"/>
</svg>
